<?xml version="1.0" encoding="iso-8859-1"?>
<!-- Generator: Adobe Illustrator 19.0.0, SVG Export Plug-In . SVG Version: 6.00 Build 0)  -->
<svg version="1.1" id="Capa_1" xmlns="http://www.w3.org/2000/svg" xmlns:xlink="http://www.w3.org/1999/xlink" x="0px" y="0px"
	 viewBox="0 0 512 512" style="enable-background:new 0 0 512 512;" xml:space="preserve">
<polygon style="fill:#CCCCCC;" points="152.912,489.696 0,445.168 0,22.304 152.912,66.832 "/>
<rect x="152.88" y="66.832" style="fill:#999999;" width="215.192" height="422.864"/>
<polygon style="fill:#CCCCCC;" points="512,454.072 368.104,489.696 368.104,66.832 512,31.208 "/>
<polygon style="fill:#FFFFFF;" points="173.36,225.048 222.584,166.584 271.808,225.048 "/>
<polygon style="fill:#F91E1E;" points="212.584,225.048 280.12,146.688 347.648,225.048 "/>
<circle style="fill:#CCCCCC;" cx="240.32" cy="138.752" r="16.592"/>
<g>
	<rect x="190.288" y="259.04" style="fill:#FFFFFF;" width="140.44" height="4"/>
	<rect x="190.288" y="291.192" style="fill:#FFFFFF;" width="140.44" height="4"/>
	<rect x="190.288" y="323.36" style="fill:#FFFFFF;" width="140.44" height="4"/>
	<rect x="190.288" y="355.52" style="fill:#FFFFFF;" width="140.44" height="4"/>
	<rect x="190.288" y="419.84" style="fill:#FFFFFF;" width="140.44" height="4"/>
	<rect x="190.288" y="387.68" style="fill:#FFFFFF;" width="140.44" height="4"/>
</g>
<g>
</g>
<g>
</g>
<g>
</g>
<g>
</g>
<g>
</g>
<g>
</g>
<g>
</g>
<g>
</g>
<g>
</g>
<g>
</g>
<g>
</g>
<g>
</g>
<g>
</g>
<g>
</g>
<g>
</g>
</svg>
