<?xml version="1.0" encoding="iso-8859-1"?>
<!-- Generator: Adobe Illustrator 19.0.0, SVG Export Plug-In . SVG Version: 6.00 Build 0)  -->
<svg version="1.1" id="Capa_1" xmlns="http://www.w3.org/2000/svg" xmlns:xlink="http://www.w3.org/1999/xlink" x="0px" y="0px"
	 viewBox="0 0 512 512" style="enable-background:new 0 0 512 512;" xml:space="preserve">
<g>
	<rect x="123.544" y="137.552" style="fill:#E2E2E2;" width="264.88" height="374.448"/>
	<polygon style="fill:#E2E2E2;" points="337.512,57.864 174.488,57.864 123.544,137.552 388.456,137.552 	"/>
</g>
<g>
	<rect x="173.216" style="fill:#666666;" width="165.576" height="57.864"/>
	<rect x="123.544" y="233.04" style="fill:#666666;" width="264.88" height="236.896"/>
</g>
<rect x="123.544" y="212.696" style="fill:#F91E1E;" width="264.88" height="20.376"/>
<g>
	<path style="fill:#FFFFFF;" d="M199.896,308.824v64.672h-8.352v-64.672H199.896z"/>
	<path style="fill:#FFFFFF;" d="M214.496,373.496v-64.672h9.12l20.728,32.72c4.8,7.584,8.536,14.4,11.608,21.016l0.184-0.096
		c-0.768-8.64-0.952-16.504-0.952-26.576v-27.064h7.864v64.672H254.6l-20.528-32.816c-4.504-7.192-8.832-14.584-12.096-21.584
		l-0.288,0.096c0.488,8.16,0.672,15.92,0.672,26.672v27.632H214.496z"/>
	<path style="fill:#FFFFFF;" d="M277.656,308.824h8.352v31.184h0.288c1.728-2.496,3.456-4.8,5.088-6.904l19.768-24.28h10.36
		l-23.416,27.448l25.232,37.224h-9.88l-21.296-31.76l-6.144,7.104v24.656h-8.352V308.824z"/>
</g>
<g>
</g>
<g>
</g>
<g>
</g>
<g>
</g>
<g>
</g>
<g>
</g>
<g>
</g>
<g>
</g>
<g>
</g>
<g>
</g>
<g>
</g>
<g>
</g>
<g>
</g>
<g>
</g>
<g>
</g>
</svg>
