<?xml version="1.0" encoding="iso-8859-1"?>
<!-- Generator: Adobe Illustrator 19.0.0, SVG Export Plug-In . SVG Version: 6.00 Build 0)  -->
<svg version="1.1" id="Capa_1" xmlns="http://www.w3.org/2000/svg" xmlns:xlink="http://www.w3.org/1999/xlink" x="0px" y="0px"
	 viewBox="0 0 512 512" style="enable-background:new 0 0 512 512;" xml:space="preserve">
<rect x="34.624" y="33.04" style="fill:#FFFFFF;" width="442.72" height="226.832"/>
<path style="fill:#CCCCCC;" d="M475.376,35.04v222.84H36.624V35.04H475.376 M479.376,31.04H32.624v230.84h446.752V31.04
	L479.376,31.04z"/>
<rect x="261.448" y="281.76" width="24" height="213.8"/>
<rect x="226.552" y="281.76" width="24" height="213.8"/>
<rect y="257.84" width="512" height="24"/>
<rect x="54.376" y="16.44" width="62.808" height="14.736"/>
<rect x="224.56" y="16.44" width="62.808" height="14.736"/>
<rect x="394.8" y="16.44" width="62.808" height="14.736"/>
<rect x="71.44" y="75.312" style="fill:#F91E1E;" width="142.36" height="142.36"/>
<g>
	<rect x="256.16" y="90.328" style="fill:#CCCCCC;" width="184.4" height="8"/>
	<rect x="256.16" y="116.408" style="fill:#CCCCCC;" width="184.4" height="8"/>
	<rect x="256.16" y="142.488" style="fill:#CCCCCC;" width="184.4" height="8"/>
	<rect x="256.16" y="168.56" style="fill:#CCCCCC;" width="184.4" height="8"/>
	<rect x="256.16" y="194.648" style="fill:#CCCCCC;" width="184.4" height="8"/>
</g>
<g>
</g>
<g>
</g>
<g>
</g>
<g>
</g>
<g>
</g>
<g>
</g>
<g>
</g>
<g>
</g>
<g>
</g>
<g>
</g>
<g>
</g>
<g>
</g>
<g>
</g>
<g>
</g>
<g>
</g>
</svg>
